<?xml version="1.0" encoding="UTF-8"?>
<svg id="Camada_1" xmlns="http://www.w3.org/2000/svg" version="1.1" viewBox="0 0 24 24">
  <!-- Generator: Adobe Illustrator 30.2.1, SVG Export Plug-In . SVG Version: 2.1.1 Build 1)  -->
  <path d="M6,22c-.55,0-1.02-.2-1.41-.59s-.59-.86-.59-1.41v-10c0-.55.2-1.02.59-1.41s.86-.59,1.41-.59h1v-2c0-1.38.49-2.56,1.46-3.54s2.15-1.46,3.54-1.46,2.56.49,3.54,1.46,1.46,2.15,1.46,3.54v2h1c.55,0,1.02.2,1.41.59s.59.86.59,1.41v10c0,.55-.2,1.02-.59,1.41s-.86.59-1.41.59H6ZM6,20h12v-10H6v10ZM9,8h6v-2c0-.83-.29-1.54-.88-2.13s-1.29-.88-2.13-.88-1.54.29-2.13.88-.88,1.29-.88,2.13v2ZM6,20v-10,10Z"/>
  <path d="M8.83,20.67l2.35-4.4-4.69-.59,7.04-6.74h1.17l-2.35,4.4,4.69.59-7.04,6.74h-1.17ZM12.08,17.04l2.36-2.26-3.94-.5.92-1.72-2.35,2.26,3.93.48-.92,1.73Z"/>
</svg>