<?xml version="1.0" encoding="UTF-8"?>
<svg id="Camada_1" xmlns="http://www.w3.org/2000/svg" version="1.1" viewBox="0 0 24 24">
  <!-- Generator: Adobe Illustrator 30.2.1, SVG Export Plug-In . SVG Version: 2.1.1 Build 1)  -->
  <path d="M13.73,16.1h4.68v-8.06h-4.68M11.58,6.01h6.84c.56,0,1.04.2,1.43.59s.59.87.59,1.43v8.06c0,.56-.2,1.04-.59,1.43s-.87.59-1.43.59h-6.84"/>
  <path d="M13.83,3.99c-.59-.59-1.29-.89-2.12-.89h-5.69v3h5.69v11.97h-5.69v3h5.69c.83,0,1.53-.3,2.12-.89s.89-1.29.89-2.12V6.1c0-.83-.3-1.53-.89-2.12Z"/>
</svg>