<?xml version="1.0" encoding="UTF-8"?>
<svg id="Camada_1" xmlns="http://www.w3.org/2000/svg" version="1.1" viewBox="0 0 24 24">
  <!-- Generator: Adobe Illustrator 30.2.1, SVG Export Plug-In . SVG Version: 2.1.1 Build 1)  -->
  <path d="M6.47,17.75h6.63V6.34h-6.63M3.43,3.48h9.68c.79,0,1.46.29,2.02.84.56.56.84,1.23.84,2.02v11.41c0,.79-.29,1.46-.84,2.02s-1.23.84-2.02.84H3.43"/>
  <path d="M15.02,15.86h4.46v-7.68h-4.46M12.98,6.25h6.52c.53,0,.99.19,1.36.56s.56.83.56,1.36v7.68c0,.53-.19.99-.56,1.36s-.83.56-1.36.56h-6.52"/>
</svg>